#N canvas 530 119 680 339 12;
#N canvas 799 190 972 961 \$0-uibguts 0;
#X obj 100 100 cnv 15 400 250 empty empty UNTIL_IT_BLAZES_perf_patch
20 12 0 20 -204786 -66577 0;
#X obj 414 211 tgl 30 0 empty \$0-uibmono mono 0 -7 0 15 -262144 -1
-1 0 1;
#X obj 115 174 vsl 30 128 0 2 0 0 empty \$0-uibgain gain 0 -9 0 15
-262144 -1 -1 6350 1;
#N canvas 373 186 886 576 \$0-uibinput 0;
#X obj 346 231 delwrite~ \$0-uibdel 1400;
#X obj 389 173 throw~ \$0-uibclean;
#X obj 334 88 adc~ 1;
#X obj 331 125 *~ 1;
#X obj 500 49 inlet;
#X connect 2 0 3 0;
#X connect 3 0 0 0;
#X connect 3 0 1 0;
#X connect 4 0 3 1;
#X restore 85 385 pd \$0-uibinput;
#X obj 236 173 vsl 30 128 0 1 0 0 empty \$0-uibwet wet 0 -9 0 15 -262144
-1 -1 8890 1;
#X obj 175 173 vsl 30 128 0 1 0 0 empty \$0-uibdry dry 0 -9 0 15 -262144
-1 -1 12700 1;
#X obj 175 319 nbx 3 20 -1e+37 1e+37 0 0 empty empty empty 0 -8 0 15
-262144 -1 -1 1 256;
#X obj 236 316 nbx 3 20 -1e+37 1e+37 0 0 empty empty empty 0 -8 0 15
-262144 -1 -1 0.7 256;
#N canvas 630 204 998 751 \$0-uibdels 0;
#X obj 162 220 delread~ \$0-uibdel 454;
#X obj 202 255 delread~ \$0-uibdel 908;
#X obj 157 305 delread~ \$0-uibdel 1362;
#X obj 208 432 +~;
#X obj 463 278 delread~ \$0-uibdel 303;
#X obj 496 332 delread~ \$0-uibdel 606;
#X obj 505 373 delread~ \$0-uibdel 909;
#X obj 507 404 delread~ \$0-uibdel 1212;
#X obj 461 455 +~;
#X obj 208 457 *~ 0.7;
#X obj 461 480 *~ 0.7;
#X obj 276 410 catch~ \$0-uibclean;
#X obj 191 620 throw~ \$0-uibL;
#X obj 381 615 throw~ \$0-uibR;
#X obj 717 222 inlet;
#X text 770 220 wet;
#X obj 245 566 *~ 1;
#X obj 361 561 *~ 1;
#N canvas 1 95 635 555 \$0-cospan 0;
#X obj 107 111 inlet~;
#X obj 307 62 inlet;
#X obj 198 92 f \$1;
#X obj 143 343 cos~;
#X obj 204 343 cos~;
#X msg 237 246 \$1 5;
#X text 118 25 -1: L \, 0: C \, 1: R;
#X obj 249 192 + 1;
#X obj 233 219 * 0.125;
#X obj 237 277 line~;
#X obj 232 303 +~ 0.75;
#X obj 89 401 *~;
#X obj 157 58 loadbang;
#X obj 167 401 *~;
#X obj 60 472 outlet~;
#X obj 145 474 outlet~;
#X text 42 27 arg: pan;
#X text 36 4 DKCOSPAN~ - cosine panner;
#X text 321 6 Derek Kwan \, 2016;
#X text 126 305 cos theta;
#X text 302 201 -1 1 to 0 2;
#X text 308 235 to 0 0.25;
#X text 304 258 (into cos~ is x*2pi = 0 to pi/2);
#X text 264 330 sin theta;
#X obj 197 161 clip -1 1;
#X connect 0 0 11 0;
#X connect 0 0 13 0;
#X connect 1 0 24 0;
#X connect 2 0 24 0;
#X connect 3 0 11 1;
#X connect 4 0 13 1;
#X connect 5 0 9 0;
#X connect 7 0 8 0;
#X connect 8 0 5 0;
#X connect 9 0 3 0;
#X connect 9 0 10 0;
#X connect 10 0 4 0;
#X connect 11 0 14 0;
#X connect 12 0 2 0;
#X connect 13 0 15 0;
#X connect 24 0 7 0;
#X restore 310 481 pd \$0-cospan;
#X obj 497 206 inlet;
#X text 553 205 dry;
#X connect 0 0 3 0;
#X connect 1 0 3 1;
#X connect 2 0 3 0;
#X connect 3 0 9 0;
#X connect 4 0 8 0;
#X connect 5 0 8 0;
#X connect 6 0 8 1;
#X connect 7 0 8 1;
#X connect 8 0 10 0;
#X connect 9 0 12 0;
#X connect 10 0 13 0;
#X connect 11 0 18 0;
#X connect 14 0 10 1;
#X connect 14 0 9 1;
#X connect 16 0 12 0;
#X connect 17 0 13 0;
#X connect 18 0 16 0;
#X connect 18 1 17 0;
#X connect 19 0 16 1;
#X connect 19 0 17 1;
#X restore 234 386 pd \$0-uibdels;
#X obj 115 318 nbx 3 20 -1e+37 1e+37 0 0 empty empty empty 0 -8 0 15
-262144 -1 -1 1 256;
#X obj 296 172 vsl 30 128 0 2 0 0 empty \$0-uibvol vol 0 -9 0 15 -262144
-1 -1 6350 1;
#X obj 296 315 nbx 3 20 -1e+37 1e+37 0 0 empty empty empty 0 -8 0 15
-262144 -1 -1 1 256;
#N canvas 502 376 895 611 \$0-uibout 0;
#X obj 94 237 catch~ \$0-uibL;
#X obj 381 228 catch~ \$0-uibR;
#X obj 299 286 *~ 1;
#X obj 396 284 *~ 0;
#X obj 409 177 == 0;
#X obj 270 450 *~ 1;
#X obj 359 448 *~ 1;
#X obj 467 117 inlet;
#X text 521 120 mono;
#X obj 611 121 inlet;
#X text 660 121 vol;
#X obj 285 546 dac~ 1 2 7 8;
#X obj 466 433 *~ 1;
#X obj 539 438 *~ 1;
#X obj 704 121 inlet;
#X text 753 120 monitor;
#X connect 0 0 5 0;
#X connect 0 0 12 0;
#X connect 1 0 2 0;
#X connect 1 0 3 0;
#X connect 2 0 6 0;
#X connect 2 0 13 0;
#X connect 3 0 5 0;
#X connect 3 0 12 0;
#X connect 4 0 2 1;
#X connect 5 0 11 0;
#X connect 6 0 11 1;
#X connect 7 0 4 0;
#X connect 7 0 3 1;
#X connect 9 0 6 1;
#X connect 9 0 5 1;
#X connect 12 0 11 2;
#X connect 13 0 11 3;
#X connect 14 0 13 1;
#X connect 14 0 12 1;
#X restore 331 431 pd \$0-uibout;
#X obj 354 173 vsl 30 128 0 2 0 0 empty \$0-uibmonitor monitor 0 -9
0 15 -262144 -1 -1 0 1;
#X obj 354 315 nbx 3 20 -1e+37 1e+37 0 0 empty empty empty 0 -8 0 15
-262144 -1 -1 0 256;
#X obj 531 390 loadbang;
#X obj 531 415 f \$0;
#X msg 531 440 \; \$1-uibgain 1 \; \$1-uibdry 1 \; \$1-uibwet 0.7 \;
\$1-uibvol 1 \; \$1-uibmonitor 0 \; \$1-uibmono 0;
#X obj 415 269 bng 30 250 50 0 empty empty default 0 -7 0 15 -262144
-1 -1;
#X connect 1 0 12 0;
#X connect 2 0 3 0;
#X connect 2 0 9 0;
#X connect 4 0 7 0;
#X connect 4 0 8 1;
#X connect 5 0 6 0;
#X connect 5 0 8 0;
#X connect 10 0 11 0;
#X connect 10 0 12 1;
#X connect 13 0 14 0;
#X connect 13 0 12 2;
#X connect 15 0 16 0;
#X connect 16 0 17 0;
#X connect 18 0 16 0;
#X coords 0 -1 1 1 400 250 2 100 100;
#X restore 259 63 pd \$0-uibguts;
#X text 9 16 performance patch for "until it blazes";
#X text 9 43 by eve beglarian;
#X text 13 129 patch by derek kwan \, 2017;
#X text 13 150 gpl v 3;
#X text 11 249 input channel is 1;
#X text 12 306 monitor channels are 7 and 8;
#X text 11 278 output channels are 1 and 2;
#N canvas 349 262 450 300 \$0-uibdsp 0;
#X obj 100 100 cnv 15 85 45 empty empty empty 20 12 0 14 -4032 -66577
0;
#X obj 116 116 tgl 15 0 empty empty dsp 17 7 0 15 -262144 -1 -1 1 1
;
#X msg 127 218 \; pd dsp \$1;
#X connect 1 0 2 0;
#X coords 0 -1 1 1 85 45 2 100 100;
#X restore 570 10 pd \$0-uibdsp;
